<svg width="112" height="32" viewBox="0 0 112 32" fill="none" xmlns="http://www.w3.org/2000/svg">
<path d="M9.256 29.656C7.35733 29.656 5.91733 29.0587 4.936 27.864C3.976 26.6907 3.496 25.176 3.496 23.32C3.496 22.872 3.51733 22.4347 3.56 22.008C3.79467 19.8533 4.44533 17.8053 5.512 15.864C6.6 13.9227 7.95467 12.184 9.576 10.648C8.72267 10.4987 7.784 10.2853 6.76 10.008C5.75733 9.73067 4.79733 9.37867 3.88 8.952C2.984 8.52533 2.248 8.03467 1.672 7.48C1.096 6.904 0.808 6.24267 0.808 5.496C0.808 5.06933 0.957333 4.728 1.256 4.472C1.55467 4.216 1.91733 4.03467 2.344 3.928C2.77067 3.8 3.19733 3.736 3.624 3.736C4.328 3.736 5.14933 3.85333 6.088 4.088C7.02667 4.32267 7.944 4.62133 8.84 4.984C9.75733 5.32533 10.504 5.688 11.08 6.072C11.1653 6.136 11.2613 6.22133 11.368 6.328C11.4747 6.41333 11.528 6.52 11.528 6.648C11.528 6.73333 11.4853 6.79733 11.4 6.84C11.3147 6.86133 11.2507 6.85067 11.208 6.808C10.0987 6.232 8.84 5.784 7.432 5.464C6.024 5.144 4.69067 4.984 3.432 4.984C3.13333 4.984 2.83467 5.03733 2.536 5.144C2.23733 5.22933 2.088 5.42133 2.088 5.72C2.088 5.976 2.17333 6.232 2.344 6.488C2.536 6.72267 2.71733 6.92533 2.888 7.096C3.76267 7.928 4.86133 8.6 6.184 9.112C7.50667 9.60267 8.808 9.95467 10.088 10.168C11.624 8.824 13.2667 7.75733 15.016 6.968C16.2747 6.41333 17.576 6.008 18.92 5.752C20.2853 5.47467 21.768 5.336 23.368 5.336C23.9013 5.37867 24.4773 5.47467 25.096 5.624C25.736 5.752 26.28 5.98667 26.728 6.328C27.176 6.648 27.4 7.10667 27.4 7.704C27.4 8.25867 27.1973 8.73867 26.792 9.144C26.408 9.54933 25.9067 9.88 25.288 10.136C24.6693 10.392 24.0187 10.584 23.336 10.712C22.696 10.8613 22.0027 10.9787 21.256 11.064C20.5307 11.128 19.8267 11.1813 19.144 11.224C18.4613 11.2453 17.896 11.256 17.448 11.256C16.616 11.256 15.784 11.2453 14.952 11.224C14.1413 11.2027 13.3307 11.1493 12.52 11.064C11.112 12.3013 9.87467 13.72 8.808 15.32C8.168 16.344 7.60267 17.4213 7.112 18.552C6.64267 19.6613 6.30133 20.824 6.088 22.04C6.00267 22.424 5.93867 22.8187 5.896 23.224C5.87467 23.608 5.864 23.992 5.864 24.376C5.864 25.6773 6.152 26.7547 6.728 27.608C7.304 28.4827 8.25333 28.92 9.576 28.92C10.344 28.92 11.176 28.7493 12.072 28.408C12.9467 28.088 13.8213 27.64 14.696 27.064C15.592 26.488 16.4453 25.8267 17.256 25.08C18.0667 24.3333 18.7813 23.544 19.4 22.712C20.0187 21.88 20.5093 21.0373 20.872 20.184C21.256 19.3093 21.448 18.4773 21.448 17.688C21.448 17.2187 21.3307 16.8987 21.096 16.728C20.8613 16.5573 20.5307 16.472 20.104 16.472C19.5493 16.472 18.9413 16.632 18.28 16.952C17.6187 17.2933 16.9467 17.7413 16.264 18.296C15.5813 18.8293 14.92 19.4373 14.28 20.12C13.6187 20.8027 13.0427 21.496 12.552 22.2C12.04 22.9253 11.6347 23.6293 11.336 24.312C11.0373 24.9733 10.888 25.56 10.888 26.072C10.888 26.1787 10.856 26.3067 10.792 26.456C10.7493 26.6053 10.664 26.68 10.536 26.68C10.408 26.68 10.3333 26.616 10.312 26.488C10.2907 26.36 10.28 26.264 10.28 26.2C10.28 25.6027 10.3973 24.9733 10.632 24.312C10.8667 23.6507 11.1013 23.0533 11.336 22.52C11.7627 21.7307 12.2747 20.92 12.872 20.088C13.4907 19.256 14.184 18.488 14.952 17.784C15.72 17.0587 16.5413 16.4827 17.416 16.056C18.2907 15.608 19.1867 15.384 20.104 15.384C20.936 15.384 21.5867 15.5547 22.056 15.896C22.5467 16.2373 22.792 16.8453 22.792 17.72C22.792 19.32 22.3867 20.8453 21.576 22.296C20.7653 23.7253 19.72 24.984 18.44 26.072C17.1387 27.16 15.6773 28.024 14.056 28.664C12.456 29.3253 10.856 29.656 9.256 29.656ZM14.44 10.456C15.4 10.456 16.4347 10.4133 17.544 10.328C18.6533 10.2427 19.752 10.104 20.84 9.912C21.9493 9.72 22.952 9.47467 23.848 9.176C24.0827 9.112 24.328 9.03733 24.584 8.952C24.84 8.86667 25.0747 8.76 25.288 8.632C25.48 8.54667 25.7147 8.408 25.992 8.216C26.2907 8.00267 26.44 7.77867 26.44 7.544C26.44 7.26667 26.2587 7.07467 25.896 6.968C25.5547 6.84 25.16 6.76533 24.712 6.744C24.264 6.72267 23.9013 6.712 23.624 6.712C21.6613 6.712 19.8053 7.04267 18.056 7.704C16.3067 8.36533 14.696 9.28267 13.224 10.456H14.44ZM27.3075 31.352C26.6888 31.352 26.2622 31.1813 26.0275 30.84C25.7928 30.52 25.6755 30.0507 25.6755 29.432C25.6755 28.7493 25.8568 27.9707 26.2195 27.096C26.5822 26.2427 27.0088 25.4 27.4995 24.568C27.9902 23.7147 28.4382 22.968 28.8435 22.328C28.9288 22.2 29.0782 21.9653 29.2915 21.624C29.5048 21.2613 29.7502 20.856 30.0275 20.408C30.3048 19.96 30.5608 19.544 30.7955 19.16C31.0302 18.7547 31.2008 18.4347 31.3075 18.2C31.6062 17.6027 31.7555 17.1653 31.7555 16.888C31.7555 16.7173 31.6915 16.632 31.5635 16.632C31.2435 16.632 30.5822 17.0693 29.5795 17.944C29.1955 18.3067 28.7155 18.7867 28.1395 19.384C27.5635 19.9813 26.9555 20.6427 26.3155 21.368C25.6968 22.072 25.1102 22.808 24.5555 23.576C24.0222 24.344 23.5955 25.08 23.2755 25.784C23.1475 26.0613 22.9982 26.264 22.8275 26.392C22.6782 26.4987 22.5288 26.552 22.3795 26.552C22.0168 26.552 21.8355 26.3493 21.8355 25.944C21.8355 25.7947 21.8675 25.6453 21.9315 25.496C22.1448 24.8987 22.4542 24.12 22.8595 23.16C23.2648 22.1787 23.7022 21.1333 24.1715 20.024C24.6408 18.9147 25.0995 17.848 25.5475 16.824C26.0168 15.8 26.4115 14.936 26.7315 14.232C26.2835 14.36 25.8782 14.4667 25.5155 14.552C25.1528 14.6373 24.8328 14.68 24.5555 14.68C24.3848 14.68 24.2675 14.6693 24.2035 14.648C23.9688 14.584 23.8515 14.52 23.8515 14.456C23.8515 14.392 23.9902 14.3493 24.2675 14.328C24.5875 14.328 24.9822 14.2747 25.4515 14.168C25.9208 14.04 26.4328 13.88 26.9875 13.688C27.3288 12.9413 27.7342 12.0987 28.2035 11.16C28.6728 10.2213 29.2062 9.272 29.8035 8.312C30.4008 7.352 31.0515 6.41333 31.7555 5.496C32.4595 4.57867 33.2275 3.768 34.0595 3.064C34.8915 2.36 35.7768 1.79467 36.7155 1.368C37.6542 0.919999 38.6462 0.695999 39.6915 0.695999C40.2462 0.695999 40.6835 0.877332 41.0035 1.24C41.3235 1.58133 41.4835 2.072 41.4835 2.712C41.4835 3.30933 41.2915 3.93867 40.9075 4.6C40.5235 5.28267 40.0008 5.96533 39.3395 6.648C38.6782 7.30933 37.9208 7.97067 37.0675 8.632C36.1928 9.29333 35.2862 9.92267 34.3475 10.52C33.4088 11.1173 32.4488 11.672 31.4675 12.184C30.4862 12.696 29.5582 13.1333 28.6835 13.496C27.9582 14.9467 27.2648 16.4187 26.6035 17.912C25.9422 19.384 25.3448 20.792 24.8115 22.136C24.9608 21.9227 25.2275 21.592 25.6115 21.144C25.9955 20.696 26.4222 20.216 26.8915 19.704C27.3608 19.192 27.7875 18.744 28.1715 18.36C28.5982 17.9547 29.0782 17.5387 29.6115 17.112C30.1662 16.664 30.6995 16.3013 31.2115 16.024C31.7448 15.7253 32.2142 15.576 32.6195 15.576C33.0462 15.576 33.3448 15.6613 33.5155 15.832C33.7075 16.0027 33.8035 16.2373 33.8035 16.536C33.8035 16.984 33.6542 17.5067 33.3555 18.104C33.0782 18.7013 32.7902 19.256 32.4915 19.768C32.3422 20.0453 32.0755 20.472 31.6915 21.048C31.3288 21.624 30.9448 22.2213 30.5395 22.84C30.1342 23.4587 29.8142 23.96 29.5795 24.344C29.2595 24.8133 28.9182 25.3467 28.5555 25.944C28.2142 26.5413 27.9048 27.1067 27.6275 27.64C27.3715 28.1947 27.2222 28.6213 27.1795 28.92C27.1582 29.048 27.1368 29.1547 27.1155 29.24C27.1155 29.3467 27.1155 29.4533 27.1155 29.56C27.1155 30.072 27.3075 30.328 27.6915 30.328C27.8835 30.328 28.0755 30.2853 28.2675 30.2C28.4808 30.136 28.7795 29.9333 29.1635 29.592C29.5688 29.272 29.9848 28.888 30.4115 28.44C30.8382 28.0133 31.2435 27.5867 31.6275 27.16C32.0115 26.7547 32.2995 26.4347 32.4915 26.2L34.8595 23.448C34.9662 23.32 35.0728 23.2027 35.1795 23.096C35.3075 22.968 35.4248 22.84 35.5315 22.712C35.7235 22.456 35.9262 22.2107 36.1395 21.976C36.2035 21.912 36.2675 21.88 36.3315 21.88C36.4595 21.88 36.5235 21.9547 36.5235 22.104C36.5235 22.1893 36.4702 22.3067 36.3635 22.456C36.1288 22.7547 35.8728 23.064 35.5955 23.384C35.3395 23.704 35.0942 24.0027 34.8595 24.28C34.6888 24.4933 34.4222 24.824 34.0595 25.272C33.7182 25.72 33.3448 26.2 32.9395 26.712C32.5342 27.224 32.1502 27.6827 31.7875 28.088C31.3608 28.5573 30.8808 29.048 30.3475 29.56C29.8142 30.072 29.2808 30.4987 28.7475 30.84C28.2142 31.1813 27.7342 31.352 27.3075 31.352ZM29.0675 12.792C29.8995 12.408 30.7635 11.96 31.6595 11.448C32.5342 10.9573 33.3982 10.4347 34.2515 9.88C35.1048 9.304 35.9155 8.70667 36.6835 8.088C37.4302 7.49067 38.0915 6.872 38.6675 6.232C39.2648 5.592 39.7235 4.97333 40.0435 4.376C40.3635 3.75733 40.5235 3.16 40.5235 2.584C40.5235 2.392 40.4808 2.2 40.3955 2.008C40.3102 1.816 40.0542 1.72 39.6275 1.72C38.9662 1.72 38.2942 1.90133 37.6115 2.264C36.9288 2.60533 36.2568 3.064 35.5955 3.64C34.9555 4.19467 34.3582 4.792 33.8035 5.432C33.2488 6.05067 32.7688 6.63733 32.3635 7.192C31.2968 8.64267 30.1982 10.5093 29.0675 12.792ZM42.363 13.016C41.8083 13.016 41.531 12.7493 41.531 12.216C41.531 11.896 41.6483 11.6293 41.883 11.416C42.1177 11.1813 42.3737 11.064 42.651 11.064C42.9283 11.064 43.1417 11.16 43.291 11.352C43.4617 11.544 43.5257 11.7787 43.483 12.056C43.419 12.3333 43.2803 12.568 43.067 12.76C42.875 12.9307 42.6403 13.016 42.363 13.016ZM37.179 27C36.0697 27 35.515 26.3067 35.515 24.92C35.515 24.6213 35.547 24.28 35.611 23.896C35.6963 23.448 35.8563 22.9147 36.091 22.296C36.347 21.656 36.6243 21.0267 36.923 20.408C37.243 19.768 37.531 19.224 37.787 18.776C38.0003 18.4347 38.2457 18.0293 38.523 17.56C38.8003 17.0907 39.067 16.6533 39.323 16.248C39.579 15.8427 39.739 15.576 39.803 15.448C39.931 15.1707 40.187 14.9573 40.571 14.808C40.955 14.6373 41.2963 14.552 41.595 14.552C41.9363 14.552 42.107 14.648 42.107 14.84C42.107 14.968 42.0643 15.0853 41.979 15.192C41.5737 15.8533 41.0937 16.6213 40.539 17.496C40.0057 18.3707 39.483 19.2667 38.971 20.184C38.459 21.1013 38.0323 21.976 37.691 22.808C37.3497 23.64 37.179 24.3547 37.179 24.952C37.179 25.272 37.2323 25.528 37.339 25.72C37.467 25.912 37.691 26.008 38.011 26.008C38.3523 26.008 38.7363 25.848 39.163 25.528C39.611 25.1867 40.0377 24.8133 40.443 24.408C40.8697 23.9813 41.1897 23.6507 41.403 23.416L42.043 22.744C42.1497 22.6373 42.2457 22.5307 42.331 22.424C42.4163 22.296 42.5017 22.1787 42.587 22.072C42.651 22.008 42.7043 21.976 42.747 21.976C42.875 21.976 42.939 22.072 42.939 22.264C42.939 22.3707 42.8963 22.4667 42.811 22.552C42.5763 22.8507 42.3417 23.1387 42.107 23.416C41.8723 23.6933 41.627 23.9707 41.371 24.248C40.8377 24.888 40.219 25.5067 39.515 26.104C38.811 26.7013 38.0323 27 37.179 27ZM44.575 27.96C43.6577 27.96 43.007 27.6827 42.623 27.128C42.239 26.5733 42.047 25.8693 42.047 25.016C42.047 24.3973 42.1217 23.7253 42.271 23C42.4417 22.2533 42.6443 21.5387 42.879 20.856C43.135 20.1733 43.3803 19.5973 43.615 19.128C44.0417 18.2533 44.5537 17.368 45.151 16.472C45.7483 15.5547 46.3883 14.7227 47.071 13.976C47.7537 13.2293 48.4577 12.632 49.183 12.184C49.9297 11.7147 50.655 11.48 51.359 11.48C51.9777 11.48 52.4363 11.704 52.735 12.152C53.055 12.5787 53.215 13.08 53.215 13.656C53.215 14.2747 53.0443 14.8293 52.703 15.32C51.999 16.344 51.487 16.856 51.167 16.856C51.0603 16.856 51.007 16.7813 51.007 16.632C51.007 16.4827 51.0923 16.184 51.263 15.736C51.3483 15.544 51.455 15.2667 51.583 14.904C51.711 14.52 51.8177 14.136 51.903 13.752C52.0097 13.3467 52.0523 12.9947 52.031 12.696C51.967 12.6747 51.871 12.664 51.743 12.664C51.295 12.664 50.8043 12.8453 50.271 13.208C49.759 13.5707 49.2363 14.04 48.703 14.616C48.1697 15.192 47.679 15.8 47.231 16.44C46.783 17.0587 46.4097 17.6347 46.111 18.168C45.8763 18.5947 45.6203 19.1173 45.343 19.736C45.0657 20.3333 44.799 20.9733 44.543 21.656C44.3083 22.3173 44.127 22.9253 43.999 23.48C43.9137 23.7787 43.8497 24.0773 43.807 24.376C43.7643 24.6747 43.743 24.9627 43.743 25.24C43.743 25.7093 43.8283 26.104 43.999 26.424C44.191 26.744 44.511 26.904 44.959 26.904C45.7057 26.904 46.431 26.7333 47.135 26.392C47.8603 26.0507 48.543 25.6133 49.183 25.08C49.823 24.5467 50.4097 24.0027 50.943 23.448C51.391 23 51.7857 22.5413 52.127 22.072C52.191 22.008 52.2443 21.976 52.287 21.976C52.415 21.976 52.479 22.072 52.479 22.264C52.479 22.3707 52.4363 22.4667 52.351 22.552L50.943 24.216C50.495 24.7493 49.919 25.3147 49.215 25.912C48.511 26.488 47.7537 26.968 46.943 27.352C46.1323 27.7573 45.343 27.96 44.575 27.96ZM51.0975 31.64C50.2868 31.64 49.7002 31.4267 49.3375 31C48.9748 30.5733 48.7935 30.1147 48.7935 29.624C48.7935 29.5387 48.7935 29.4533 48.7935 29.368C48.7935 29.304 48.8042 29.24 48.8255 29.176C48.9962 28.4293 49.4228 27.704 50.1055 27C50.7882 26.2747 51.7055 25.688 52.8575 25.24C54.0308 24.7707 55.3962 24.536 56.9535 24.536C57.3588 24.536 57.7748 24.5573 58.2015 24.6C58.6282 24.6427 59.0442 24.7173 59.4495 24.824C59.9615 24.2267 60.4628 23.5547 60.9535 22.808C61.4655 22.0613 61.9775 21.272 62.4895 20.44H61.8815C61.6895 20.44 61.4868 20.4293 61.2735 20.408C59.8015 20.3013 58.5962 19.9067 57.6575 19.224C56.7188 18.52 56.2495 17.4853 56.2495 16.12C56.2495 15.928 56.2602 15.736 56.2815 15.544C56.3242 15.352 56.3562 15.1493 56.3775 14.936C56.5482 13.8693 56.9642 12.9307 57.6255 12.12C58.3082 11.3093 59.0975 10.616 59.9935 10.04C60.9108 9.464 61.8282 9.016 62.7455 8.696C63.6628 8.376 64.4522 8.17333 65.1135 8.088H65.2735C65.3802 8.088 65.4335 8.12 65.4335 8.184C65.4335 8.26933 65.3268 8.32267 65.1135 8.344C64.4948 8.45067 63.8015 8.696 63.0335 9.08C62.2655 9.44267 61.4975 9.92267 60.7295 10.52C59.9828 11.1173 59.3215 11.8213 58.7455 12.632C58.1908 13.4213 57.8282 14.3067 57.6575 15.288C57.5935 15.6293 57.5615 15.9493 57.5615 16.248C57.5615 17.3787 57.9348 18.2213 58.6815 18.776C59.4495 19.3093 60.4628 19.6613 61.7215 19.832C61.8922 19.8533 62.0735 19.864 62.2655 19.864H62.8735L64.9215 16.312C65.6255 15.0747 66.3508 13.8693 67.0975 12.696C67.8655 11.5013 68.6655 10.3707 69.4975 9.304C70.3082 8.23733 71.1722 7.29867 72.0895 6.488C72.9855 5.67733 73.9348 5.03733 74.9375 4.568C75.9615 4.09867 77.0388 3.864 78.1695 3.864C78.8948 3.864 79.4175 4.088 79.7375 4.536C80.0575 4.984 80.2175 5.51733 80.2175 6.136C80.2175 6.24267 80.2068 6.36 80.1855 6.488C80.1855 6.616 80.1748 6.744 80.1535 6.872C79.8548 8.42933 79.2362 9.95467 78.2975 11.448C77.3802 12.9413 76.2388 14.296 74.8735 15.512C73.4868 16.728 71.9188 17.7627 70.1695 18.616C68.4415 19.448 66.6388 20.0027 64.7615 20.28C64.0788 21.304 63.4282 22.232 62.8095 23.064C62.1908 23.896 61.6362 24.6213 61.1455 25.24C61.7855 25.432 62.4148 25.6453 63.0335 25.88C63.6735 26.0933 64.2922 26.3173 64.8895 26.552C65.2948 26.7013 65.7855 26.9147 66.3615 27.192C66.9375 27.4907 67.5242 27.8 68.1215 28.12C68.7188 28.44 69.2628 28.7067 69.7535 28.92C70.3935 29.2187 71.0228 29.464 71.6415 29.656C72.2815 29.8693 72.8895 29.976 73.4655 29.976C73.8922 29.976 74.2975 29.912 74.6815 29.784C75.0442 29.6347 75.3108 29.1867 75.4815 28.44C75.6522 27.7147 75.7375 26.9147 75.7375 26.04C75.7375 25.4427 75.6948 24.8347 75.6095 24.216C75.5242 23.5973 75.4068 23.0213 75.2575 22.488C75.2362 22.424 75.2468 22.392 75.2895 22.392C75.3322 22.4133 75.4175 22.5413 75.5455 22.776C75.9508 23.5653 76.3562 24.2907 76.7615 24.952C77.1882 25.592 77.4015 26.2853 77.4015 27.032C77.4015 27.1813 77.3802 27.3413 77.3375 27.512C77.3162 27.6827 77.2842 27.8533 77.2415 28.024C77.0922 28.536 76.7508 28.9947 76.2175 29.4C75.6842 29.8267 75.2042 30.104 74.7775 30.232C74.2015 30.4027 73.6148 30.488 73.0175 30.488C72.0362 30.488 70.9908 30.3387 69.8815 30.04C68.7935 29.7413 67.7482 29.3893 66.7455 28.984C65.7642 28.5787 64.9215 28.2267 64.2175 27.928C63.6628 27.6933 62.9908 27.4587 62.2015 27.224C61.4335 27.0107 60.6442 26.8187 59.8335 26.648C59.0868 27.3947 58.2122 28.152 57.2095 28.92C56.2068 29.688 55.1722 30.328 54.1055 30.84C53.0388 31.3733 52.0362 31.64 51.0975 31.64ZM65.2095 19.608C66.7242 19.2667 68.2602 18.68 69.8175 17.848C71.3962 16.9947 72.8468 15.992 74.1695 14.84C75.4922 13.688 76.6228 12.4293 77.5615 11.064C78.5002 9.69867 79.0975 8.32267 79.3535 6.936C79.3748 6.872 79.3855 6.808 79.3855 6.744C79.3855 6.65867 79.3855 6.584 79.3855 6.52C79.3855 6.15733 79.2788 5.848 79.0655 5.592C78.8735 5.336 78.5215 5.208 78.0095 5.208C77.5615 5.208 77.0495 5.38933 76.4735 5.752C75.8335 6.15733 75.1508 6.712 74.4255 7.416C73.7215 8.12 72.9855 8.952 72.2175 9.912C71.4282 10.872 70.6388 11.8853 69.8495 12.952C69.0602 14.04 68.2708 15.16 67.4815 16.312C66.6922 17.4427 65.9348 18.5413 65.2095 19.608ZM51.2575 30.968C52.0468 30.968 52.8575 30.712 53.6895 30.2C54.5215 29.688 55.3108 29.0693 56.0575 28.344C56.8255 27.6187 57.5082 26.936 58.1055 26.296C57.6575 26.2747 57.2415 26.2427 56.8575 26.2C55.6842 26.1573 54.5642 26.2533 53.4975 26.488C52.4522 26.7227 51.5668 27.0747 50.8415 27.544C50.1162 28.0133 49.6682 28.568 49.4975 29.208C49.4762 29.272 49.4655 29.3893 49.4655 29.56C49.4655 29.88 49.5828 30.1893 49.8175 30.488C50.0522 30.808 50.5322 30.968 51.2575 30.968ZM85.613 13.016C85.0583 13.016 84.781 12.7493 84.781 12.216C84.781 11.896 84.8983 11.6293 85.133 11.416C85.3677 11.1813 85.6237 11.064 85.901 11.064C86.1783 11.064 86.3917 11.16 86.541 11.352C86.7117 11.544 86.7757 11.7787 86.733 12.056C86.669 12.3333 86.5303 12.568 86.317 12.76C86.125 12.9307 85.8903 13.016 85.613 13.016ZM80.429 27C79.3197 27 78.765 26.3067 78.765 24.92C78.765 24.6213 78.797 24.28 78.861 23.896C78.9463 23.448 79.1063 22.9147 79.341 22.296C79.597 21.656 79.8743 21.0267 80.173 20.408C80.493 19.768 80.781 19.224 81.037 18.776C81.2503 18.4347 81.4957 18.0293 81.773 17.56C82.0503 17.0907 82.317 16.6533 82.573 16.248C82.829 15.8427 82.989 15.576 83.053 15.448C83.181 15.1707 83.437 14.9573 83.821 14.808C84.205 14.6373 84.5463 14.552 84.845 14.552C85.1863 14.552 85.357 14.648 85.357 14.84C85.357 14.968 85.3143 15.0853 85.229 15.192C84.8237 15.8533 84.3437 16.6213 83.789 17.496C83.2557 18.3707 82.733 19.2667 82.221 20.184C81.709 21.1013 81.2823 21.976 80.941 22.808C80.5997 23.64 80.429 24.3547 80.429 24.952C80.429 25.272 80.4823 25.528 80.589 25.72C80.717 25.912 80.941 26.008 81.261 26.008C81.6023 26.008 81.9863 25.848 82.413 25.528C82.861 25.1867 83.2877 24.8133 83.693 24.408C84.1197 23.9813 84.4397 23.6507 84.653 23.416L85.293 22.744C85.3997 22.6373 85.4957 22.5307 85.581 22.424C85.6663 22.296 85.7517 22.1787 85.837 22.072C85.901 22.008 85.9543 21.976 85.997 21.976C86.125 21.976 86.189 22.072 86.189 22.264C86.189 22.3707 86.1463 22.4667 86.061 22.552C85.8263 22.8507 85.5917 23.1387 85.357 23.416C85.1223 23.6933 84.877 23.9707 84.621 24.248C84.0877 24.888 83.469 25.5067 82.765 26.104C82.061 26.7013 81.2823 27 80.429 27ZM92.017 27.032C91.6543 27.032 91.3983 26.8933 91.249 26.616C91.0997 26.3387 91.025 26.008 91.025 25.624C91.025 24.9413 91.2063 24.1627 91.569 23.288C91.953 22.4133 92.3903 21.5173 92.881 20.6C93.3717 19.6827 93.7983 18.8187 94.161 18.008C94.545 17.176 94.737 16.472 94.737 15.896C94.737 15.6187 94.6837 15.3947 94.577 15.224C94.4917 15.0533 94.353 14.968 94.161 14.968C93.905 14.968 93.5957 15.1067 93.233 15.384C92.8277 15.6613 92.369 16.12 91.857 16.76L90.673 18.232C90.0543 19 89.425 19.8213 88.785 20.696C88.1663 21.5493 87.601 22.3493 87.089 23.096C86.5983 23.8427 86.2357 24.44 86.001 24.888C85.809 25.2293 85.585 25.4 85.329 25.4C85.1797 25.4 85.041 25.3253 84.913 25.176C84.785 25.0267 84.721 24.8347 84.721 24.6C84.721 24.4507 84.753 24.28 84.817 24.088C85.5637 22.6587 86.2677 21.1333 86.929 19.512C87.6117 17.8907 88.2837 16.4187 88.945 15.096C89.137 14.7333 89.457 14.424 89.905 14.168C90.353 13.8907 90.7477 13.752 91.089 13.752C91.409 13.752 91.569 13.8693 91.569 14.104C91.569 14.232 91.473 14.4773 91.281 14.84C91.0463 15.2027 90.7583 15.672 90.417 16.248C90.0757 16.824 89.7237 17.432 89.361 18.072C88.9983 18.712 88.657 19.32 88.337 19.896C88.0383 20.472 87.8143 20.9413 87.665 21.304C87.8997 20.984 88.2197 20.504 88.625 19.864C89.0517 19.224 89.6277 18.4773 90.353 17.624L91.377 16.408C92.0597 15.5973 92.689 15.0427 93.265 14.744C93.841 14.4453 94.3743 14.296 94.865 14.296C95.249 14.296 95.5797 14.392 95.857 14.584C96.1343 14.776 96.273 15.1067 96.273 15.576C96.273 16.1307 96.1557 16.6853 95.921 17.24C95.6863 17.7733 95.4943 18.2 95.345 18.52C95.1957 18.8613 94.9823 19.3307 94.705 19.928C94.4277 20.5253 94.1503 21.1653 93.873 21.848C93.5957 22.5307 93.361 23.1707 93.169 23.768C92.977 24.3653 92.881 24.824 92.881 25.144C92.881 25.4213 92.9663 25.56 93.137 25.56C93.3503 25.56 93.6277 25.4533 93.969 25.24C94.3317 25.0053 94.6837 24.7493 95.025 24.472C95.3877 24.1947 95.665 23.9707 95.857 23.8C96.561 23.16 97.2757 22.4133 98.001 21.56C98.1077 21.432 98.193 21.368 98.257 21.368C98.321 21.368 98.353 21.432 98.353 21.56C98.353 21.624 98.321 21.7093 98.257 21.816C98.2143 21.9227 98.161 22.04 98.097 22.168C97.969 22.3813 97.7663 22.6693 97.489 23.032C97.2117 23.3733 96.9237 23.704 96.625 24.024C96.177 24.5147 95.6757 24.984 95.121 25.432C94.5877 25.88 93.9903 26.2853 93.329 26.648C93.1583 26.7333 92.9983 26.808 92.849 26.872C92.721 26.9147 92.6143 26.9467 92.529 26.968C92.4437 26.9893 92.3583 27 92.273 27C92.1877 27.0213 92.1023 27.032 92.017 27.032ZM103.03 27.096C102.262 27.096 101.676 26.808 101.27 26.232C100.865 25.656 100.662 25.0053 100.662 24.28C100.662 24.152 100.662 24.024 100.662 23.896C100.684 23.768 100.705 23.64 100.726 23.512C100.833 23.064 101.068 22.648 101.43 22.264C101.793 21.8587 102.081 21.656 102.294 21.656C102.294 21.6347 102.337 21.624 102.422 21.624C102.956 21.624 103.51 21.4853 104.086 21.208C104.662 20.9093 105.185 20.5573 105.654 20.152C106.124 19.7467 106.465 19.3627 106.678 19C106.806 18.7653 106.87 18.5733 106.87 18.424C106.87 18.1467 106.689 18.008 106.326 18.008C106.198 18.008 106.06 18.0293 105.91 18.072C105.782 18.1147 105.633 18.1573 105.462 18.2C104.972 18.3707 104.417 18.6587 103.798 19.064C103.18 19.448 102.593 19.9493 102.038 20.568C101.676 20.952 101.217 21.4853 100.662 22.168C100.129 22.8293 99.5849 23.5333 99.0303 24.28C98.4969 25.0267 98.0489 25.6987 97.6863 26.296C97.5796 26.488 97.4409 26.6373 97.2703 26.744C97.0996 26.8293 96.9289 26.872 96.7583 26.872C96.5876 26.872 96.4383 26.8293 96.3102 26.744C96.1822 26.6373 96.1182 26.488 96.1182 26.296C96.1182 26.168 96.1502 26.0293 96.2142 25.88C96.3636 25.496 96.5449 25.048 96.7583 24.536C96.9716 24.0027 97.1743 23.48 97.3663 22.968C97.5796 22.456 97.7716 22.0293 97.9423 21.688C98.2196 21.0267 98.5289 20.3333 98.8703 19.608C99.2116 18.8827 99.6063 18.072 100.054 17.176C100.545 16.216 101.132 15.128 101.814 13.912C102.497 12.696 103.222 11.48 103.99 10.264C104.78 9.02667 105.569 7.896 106.358 6.872C107.148 5.82667 107.905 4.99467 108.63 4.376C109.313 3.77867 109.91 3.416 110.422 3.288C110.956 3.16 111.414 3.07467 111.798 3.032C111.137 3.736 110.486 4.44 109.846 5.144C109.228 5.848 108.598 6.63733 107.958 7.512C106.934 8.89867 105.932 10.3387 104.95 11.832C103.969 13.304 103.105 14.808 102.358 16.344C101.846 17.496 101.292 18.6267 100.694 19.736C100.097 20.8453 99.6063 21.9227 99.2223 22.968C99.6489 22.456 100.14 21.8587 100.694 21.176C101.249 20.472 101.836 19.7893 102.454 19.128C103.073 18.4453 103.692 17.8587 104.31 17.368C104.95 16.8773 105.558 16.568 106.134 16.44C106.284 16.3973 106.422 16.376 106.55 16.376C106.678 16.376 106.796 16.376 106.902 16.376C107.457 16.376 107.852 16.4933 108.086 16.728C108.321 16.9627 108.438 17.2613 108.438 17.624C108.438 18.2213 108.172 18.872 107.638 19.576C107.276 20.024 106.774 20.44 106.134 20.824C105.516 21.1867 104.865 21.4853 104.182 21.72C103.5 21.9333 102.892 22.0507 102.358 22.072C102.337 22.2427 102.316 22.4453 102.294 22.68C102.294 22.8933 102.294 23.1173 102.294 23.352C102.294 24.0133 102.358 24.6427 102.486 25.24C102.636 25.816 102.934 26.104 103.382 26.104C103.489 26.104 103.617 26.0827 103.766 26.04C103.937 25.9973 104.129 25.9227 104.342 25.816C104.812 25.5813 105.281 25.2507 105.75 24.824C106.22 24.376 106.668 23.9067 107.094 23.416C107.329 23.1813 107.542 22.9573 107.734 22.744C107.926 22.5307 108.108 22.3067 108.278 22.072C108.321 22.008 108.364 21.976 108.406 21.976C108.534 21.976 108.598 22.072 108.598 22.264C108.598 22.3707 108.556 22.4667 108.47 22.552L107.062 24.248C106.849 24.5253 106.614 24.8027 106.358 25.08C106.124 25.336 105.868 25.5813 105.59 25.816C104.694 26.6693 103.841 27.096 103.03 27.096Z" fill="white"/>
</svg>
