<svg width="135" height="25" viewBox="0 0 135 25" fill="none" xmlns="http://www.w3.org/2000/svg">
<path d="M4.22 16.88C4.00667 16.88 3.79333 16.8733 3.58 16.86C3.38 16.8467 3.17333 16.8267 2.96 16.8C2.32 16.6933 1.79333 16.4467 1.38 16.06C0.966667 15.6867 0.76 15.1933 0.76 14.58C0.76 14.4733 0.766667 14.3667 0.78 14.26C0.793333 14.14 0.813333 14.02 0.84 13.9C0.973333 13.4467 1.24667 12.98 1.66 12.5C2.08667 12.02 2.6 11.56 3.2 11.12C3.8 10.6667 4.44 10.2667 5.12 9.92C5.8 9.56 6.46667 9.28 7.12 9.08C6.29333 9.08 5.66667 8.90667 5.24 8.56C4.82667 8.2 4.62 7.76 4.62 7.24C4.62 6.77333 4.69333 6.34 4.84 5.94C5 5.52667 5.21333 5.13333 5.48 4.76C4.64 4.65333 3.9 4.51333 3.26 4.34C2.63333 4.15333 2.16667 3.96667 1.86 3.78C1.7 3.66 1.62 3.57333 1.62 3.52C1.62 3.48 1.65333 3.46 1.72 3.46C1.77333 3.46 1.88 3.49333 2.04 3.56C2.46667 3.77333 3 3.94667 3.64 4.08C4.29333 4.21333 5.01333 4.31333 5.8 4.38C6.25333 3.87333 6.80667 3.42 7.46 3.02C8.11333 2.62 8.80667 2.28 9.54 2C10.2733 1.72 10.9933 1.50667 11.7 1.36C12.4067 1.21333 13.0467 1.14 13.62 1.14C13.9533 1.14 14.32 1.18667 14.72 1.28C15.12 1.37333 15.46 1.52667 15.74 1.74C16.0333 1.94 16.18 2.21333 16.18 2.56C16.18 2.97333 16.02 3.32667 15.7 3.62C15.38 3.9 14.9733 4.13333 14.48 4.32C14 4.49333 13.4933 4.63333 12.96 4.74C12.4267 4.83333 11.9467 4.9 11.52 4.94C11.1733 4.96667 10.82 4.99333 10.46 5.02C10.1 5.03333 9.74 5.04 9.38 5.04C8.94 5.04 8.5 5.02667 8.06 5C7.62 4.97333 7.18 4.94 6.74 4.9C6.35333 5.26 6.02 5.65333 5.74 6.08C5.46 6.49333 5.32 6.92 5.32 7.36C5.32 7.73333 5.52 8.07333 5.92 8.38C6.33333 8.68667 6.87333 8.84 7.54 8.84C7.87333 8.84 8.22667 8.79333 8.6 8.7C8.97333 8.60667 9.24 8.56 9.4 8.56C9.54667 8.53333 9.68 8.60667 9.8 8.78C9.92 8.95333 9.98 9.11333 9.98 9.26C9.98 9.40667 9.91333 9.48 9.78 9.48C9.36667 9.52 8.92 9.61333 8.44 9.76C7.46667 10.0533 6.47333 10.5133 5.46 11.14C4.96667 11.4467 4.50667 11.7733 4.08 12.12C3.64 12.48 3.24667 12.8533 2.9 13.24C2.56667 13.6267 2.3 14.0133 2.1 14.4C2.04667 14.5067 2.00667 14.6133 1.98 14.72C1.95333 14.8133 1.94 14.9 1.94 14.98C1.94 15.5267 2.6 15.8 3.92 15.8C4.37333 15.8 4.9 15.7467 5.5 15.64C6.11333 15.5333 6.74 15.3867 7.38 15.2C8.03333 15.0133 8.64667 14.7933 9.22 14.54C9.55333 14.3933 9.94 14.18 10.38 13.9C10.82 13.6067 11.2533 13.2867 11.68 12.94C12.1067 12.58 12.46 12.2133 12.74 11.84C13.02 11.4667 13.16 11.12 13.16 10.8C13.16 10.5467 12.9933 10.42 12.66 10.42C12.42 10.42 12.12 10.4867 11.76 10.62C11.4 10.74 11.0133 10.9 10.6 11.1C10.2 11.3 9.81333 11.5267 9.44 11.78C9.06667 12.0333 8.75333 12.28 8.5 12.52C8.38 12.6267 8.26667 12.68 8.16 12.68C8.08 12.68 8.04 12.6333 8.04 12.54C8.04 12.4733 8.06 12.4067 8.1 12.34C8.14 12.26 8.20667 12.18 8.3 12.1C8.46 11.9667 8.7 11.7733 9.02 11.52C9.34 11.2667 9.69333 11.0133 10.08 10.76C10.48 10.5067 10.88 10.2933 11.28 10.12C11.68 9.93333 12.0333 9.84 12.34 9.84C12.74 9.84 13.0867 9.93333 13.38 10.12C13.6733 10.3067 13.82 10.6533 13.82 11.16C13.82 11.5867 13.6933 12.0133 13.44 12.44C13.1867 12.8533 12.86 13.2533 12.46 13.64C12.0733 14.0133 11.6533 14.3533 11.2 14.66C10.76 14.9667 10.3467 15.22 9.96 15.42C9.18667 15.82 8.3 16.16 7.3 16.44C6.3 16.7333 5.27333 16.88 4.22 16.88ZM7.32 4.44C8.8 4.46667 10.2067 4.37333 11.54 4.16C11.82 4.12 12.1733 4.06 12.6 3.98C13.04 3.88667 13.4667 3.77333 13.88 3.64C14.3067 3.50667 14.66 3.35333 14.94 3.18C15.2333 3.00667 15.38 2.80667 15.38 2.58C15.38 2.43333 15.2667 2.33333 15.04 2.28C14.8133 2.21333 14.5467 2.17333 14.24 2.16C13.9467 2.14667 13.6867 2.14 13.46 2.14C12.6867 2.14 11.9333 2.25333 11.2 2.48C10.4667 2.69333 9.83333 2.93333 9.3 3.2C9.04667 3.34667 8.74 3.52667 8.38 3.74C8.03333 3.94 7.68 4.17333 7.32 4.44ZM15.2458 18.52C14.9924 18.52 14.7724 18.4133 14.5858 18.2C14.3991 17.9867 14.3058 17.6533 14.3058 17.2C14.3058 16.9467 14.3324 16.6867 14.3858 16.42C14.6124 15.1667 14.9658 13.8467 15.4458 12.46C15.9258 11.0733 16.5258 9.7 17.2458 8.34C16.4058 8.62 15.7124 8.76 15.1658 8.76C14.9124 8.76 14.7258 8.74 14.6058 8.7C14.4858 8.64667 14.4258 8.59333 14.4258 8.54C14.4258 8.46 14.5524 8.42667 14.8058 8.44C14.8591 8.45333 14.9058 8.46 14.9458 8.46C14.9991 8.46 15.0524 8.46 15.1058 8.46C15.4258 8.46 15.7858 8.41333 16.1858 8.32C16.5858 8.21333 17.0124 8.07333 17.4658 7.9C18.1858 6.58 18.9791 5.33333 19.8458 4.16C20.7258 2.97333 21.6658 1.92 22.6658 0.999999C23.0124 0.693332 23.3658 0.453332 23.7258 0.279999C24.0991 0.0933321 24.4391 -1.19209e-06 24.7458 -1.19209e-06C25.0124 -1.19209e-06 25.2391 0.0733324 25.4258 0.22C25.6124 0.366666 25.7391 0.613333 25.8058 0.96C25.8191 1.01333 25.8258 1.07333 25.8258 1.14C25.8391 1.20667 25.8458 1.27333 25.8458 1.34C25.8458 1.59333 25.7924 1.86667 25.6858 2.16C25.3524 3 24.6791 3.84667 23.6658 4.7C23.1724 5.12667 22.6458 5.52667 22.0858 5.9C21.5258 6.27333 20.9391 6.62667 20.3258 6.96C19.7124 7.29333 19.1191 7.58 18.5458 7.82C18.1058 8.58 17.6991 9.35333 17.3258 10.14C16.9524 10.9267 16.6324 11.7 16.3658 12.46C16.0858 13.2333 15.8658 13.98 15.7058 14.7C15.5458 15.4067 15.4591 16.0733 15.4458 16.7C15.4458 17.2867 15.5924 17.58 15.8858 17.58C16.0591 17.58 16.2791 17.5133 16.5458 17.38C16.9591 17.14 17.3124 16.8933 17.6058 16.64C17.8991 16.3867 18.1991 16.0867 18.5058 15.74C18.6524 15.5667 18.8591 15.3133 19.1258 14.98C19.4058 14.6333 19.7058 14.2667 20.0258 13.88C20.3458 13.48 20.6524 13.1133 20.9458 12.78C21.2124 12.46 21.4791 12.1533 21.7458 11.86C21.7858 11.82 21.8191 11.8 21.8458 11.8C21.9258 11.8 21.9658 11.8533 21.9658 11.96C21.9658 12.0267 21.9391 12.0933 21.8858 12.16C21.7391 12.3467 21.5791 12.54 21.4058 12.74C21.2458 12.94 21.0924 13.1267 20.9458 13.3C20.8658 13.38 20.7191 13.5533 20.5058 13.82C20.2924 14.0733 20.0391 14.38 19.7458 14.74C19.4524 15.0867 19.1524 15.44 18.8458 15.8C18.5391 16.1733 18.2524 16.5133 17.9858 16.82C17.7324 17.1267 17.5258 17.36 17.3658 17.52C17.0724 17.8 16.7524 18.0333 16.4058 18.22C16.0724 18.42 15.6858 18.52 15.2458 18.52ZM18.8658 7.28C19.5191 6.96 20.1858 6.58 20.8658 6.14C21.5458 5.68667 22.1924 5.20667 22.8058 4.7C23.4191 4.18 23.9458 3.65333 24.3858 3.12C24.8258 2.58667 25.1324 2.06667 25.3058 1.56C25.3591 1.4 25.3858 1.24 25.3858 1.08C25.3858 0.666666 25.2191 0.459999 24.8858 0.459999C24.6724 0.459999 24.4524 0.553332 24.2258 0.739999C23.3324 1.44667 22.4191 2.37333 21.4858 3.52C20.5524 4.66667 19.6791 5.92 18.8658 7.28ZM22.3614 17.88C21.8414 17.88 21.4414 17.6667 21.1614 17.24C20.8814 16.8267 20.7414 16.2333 20.7414 15.46C20.7414 15.3267 20.7481 15.1933 20.7614 15.06C20.7614 14.9267 20.7681 14.7867 20.7814 14.64C20.8614 13.9867 21.0614 13.2733 21.3814 12.5C21.7147 11.7267 22.2214 10.9 22.9014 10.02C23.3547 9.43333 23.8481 8.99333 24.3814 8.7C24.9147 8.40667 25.4281 8.26 25.9214 8.26C26.2681 8.26 26.5747 8.32667 26.8414 8.46C27.1614 8.63333 27.3214 8.94667 27.3214 9.4C27.3214 9.73333 27.2014 10.1067 26.9614 10.52C26.7214 10.92 26.3147 11.3067 25.7414 11.68C24.9814 12.16 24.3481 12.48 23.8414 12.64C23.3347 12.8 22.9281 12.8867 22.6214 12.9C22.5147 13.0467 22.4081 13.28 22.3014 13.6C22.1947 13.9067 22.1014 14.2333 22.0214 14.58C21.9547 14.9133 21.9081 15.2133 21.8814 15.48C21.8814 15.5333 21.8747 15.5867 21.8614 15.64C21.8614 15.7067 21.8614 15.7733 21.8614 15.84C21.8614 16.24 21.9281 16.58 22.0614 16.86C22.2081 17.1533 22.4614 17.3 22.8214 17.3C23.1414 17.3 23.5014 17.18 23.9014 16.94C24.3014 16.7133 24.6947 16.4333 25.0814 16.1C25.4814 15.78 25.8281 15.4667 26.1214 15.16C26.4281 14.8667 26.6414 14.6467 26.7614 14.5L28.2414 12.78L29.0414 11.86C29.0814 11.82 29.1147 11.8 29.1414 11.8C29.2214 11.8 29.2614 11.8533 29.2614 11.96C29.2614 12 29.2281 12.0667 29.1614 12.16C29.0281 12.3467 28.8747 12.54 28.7014 12.74C28.5414 12.94 28.3881 13.1267 28.2414 13.3C28.0547 13.5133 27.8214 13.7867 27.5414 14.12C27.2747 14.4533 26.9881 14.8 26.6814 15.16C26.3881 15.52 26.1014 15.8333 25.8214 16.1C25.3147 16.5933 24.7681 17.0133 24.1814 17.36C23.6081 17.7067 23.0014 17.88 22.3614 17.88ZM22.8014 12.58C22.9881 12.5667 23.2214 12.4933 23.5014 12.36C23.7814 12.2267 24.0747 12.0667 24.3814 11.88C24.6881 11.6933 24.9681 11.5067 25.2214 11.32C25.4881 11.12 25.7014 10.9533 25.8614 10.82C26.1681 10.58 26.3947 10.3133 26.5414 10.02C26.6881 9.72667 26.7614 9.47333 26.7614 9.26C26.7614 9.11333 26.7214 8.98667 26.6414 8.88C26.5747 8.77333 26.4681 8.72 26.3214 8.72C26.0414 8.72 25.7347 8.86 25.4014 9.14C25.0814 9.40667 24.7547 9.75333 24.4214 10.18C24.1014 10.5933 23.7947 11.02 23.5014 11.46C23.2214 11.8867 22.9881 12.26 22.8014 12.58ZM26.4461 24.42C26.0328 24.42 25.6728 24.2867 25.3661 24.02C25.0594 23.7667 24.9061 23.3733 24.9061 22.84C24.9061 22.2 25.1261 21.5067 25.5661 20.76C25.9928 20.0133 26.6128 19.26 27.4261 18.5C27.8794 18.0733 28.4061 17.6267 29.0061 17.16C29.6194 16.6933 30.2394 16.2533 30.8661 15.84C31.5061 15.4267 32.0728 15.08 32.5661 14.8C32.9528 13.9467 33.3261 13.0933 33.6861 12.24C34.0461 11.3733 34.3594 10.5467 34.6261 9.76C34.3861 10.2 34.0928 10.7067 33.7461 11.28C33.4128 11.8533 33.0461 12.4133 32.6461 12.96C32.2461 13.5067 31.8194 13.96 31.3661 14.32C30.9261 14.6667 30.4794 14.84 30.0261 14.84C29.5328 14.84 29.1861 14.6867 28.9861 14.38C28.7861 14.0733 28.6861 13.6933 28.6861 13.24C28.6861 12.76 28.7661 12.2467 28.9261 11.7C29.0861 11.1533 29.2594 10.6733 29.4461 10.26C29.6994 9.7 30.0194 9.15333 30.4061 8.62C30.7928 8.07333 31.2128 7.58 31.6661 7.14C32.1194 6.68667 32.5794 6.32667 33.0461 6.06C33.5128 5.79333 33.9661 5.66 34.4061 5.66C34.7528 5.66 35.0994 5.74 35.4461 5.9C35.7928 6.06 36.0861 6.34667 36.3261 6.76C36.5661 7.17333 36.6861 7.75333 36.6861 8.5C36.6861 8.72667 36.6594 8.90667 36.6061 9.04C36.5528 9.16 36.4994 9.22 36.4461 9.22C36.3528 9.22 36.3061 9.04 36.3061 8.68C36.3061 8.34667 36.2528 8.00667 36.1461 7.66C36.0394 7.31333 35.8794 7.02667 35.6661 6.8C35.4528 6.56 35.1861 6.43333 34.8661 6.42C34.4928 6.39333 34.1128 6.48667 33.7261 6.7C33.3528 6.9 32.9994 7.17333 32.6661 7.52C32.3328 7.86667 32.0328 8.23333 31.7661 8.62C31.4728 9.04667 31.2061 9.48 30.9661 9.92C30.7261 10.36 30.5194 10.78 30.3461 11.18C30.1728 11.58 30.0461 11.92 29.9661 12.2C29.8194 12.6667 29.7461 13.0533 29.7461 13.36C29.7461 13.92 29.9261 14.2 30.2861 14.2C30.5794 14.2 30.9394 13.9867 31.3661 13.56C31.6061 13.3067 31.8728 13.0067 32.1661 12.66C32.4594 12.3133 32.7461 11.96 33.0261 11.6C33.3194 11.2267 33.5794 10.8867 33.8061 10.58C34.0461 10.26 34.2328 10.0133 34.3661 9.84C34.4061 9.76 34.4794 9.65333 34.5861 9.52C34.6794 9.4 34.7794 9.17333 34.8861 8.84C34.9661 8.56 35.0794 8.42 35.2261 8.42C35.3728 8.42 35.4461 8.54667 35.4461 8.8C35.4194 9.02667 35.3528 9.34667 35.2461 9.76C35.1394 10.16 35.0061 10.62 34.8461 11.14C34.6861 11.6467 34.5194 12.16 34.3461 12.68C34.1728 13.2 34.0061 13.68 33.8461 14.12C34.0994 13.9867 34.3261 13.88 34.5261 13.8L35.0261 13.6C35.0528 13.6 35.0661 13.6 35.0661 13.6C35.0794 13.5867 35.0928 13.58 35.1061 13.58C35.2528 13.58 35.3261 13.6467 35.3261 13.78C35.3261 13.86 35.2794 13.9067 35.1861 13.92C35.0261 13.9867 34.8128 14.08 34.5461 14.2C34.2794 14.3067 33.9794 14.4533 33.6461 14.64C33.2994 15.6 32.9194 16.54 32.5061 17.46C32.0928 18.38 31.6861 19.18 31.2861 19.86C30.5661 21.0867 29.9061 22.0333 29.3061 22.7C28.7061 23.3667 28.1594 23.8333 27.6661 24.1C27.2794 24.3133 26.8728 24.42 26.4461 24.42ZM26.3261 23.96C26.6061 23.96 26.8794 23.8667 27.1461 23.68C27.4528 23.4667 27.7861 23.1533 28.1461 22.74C28.4928 22.3267 28.8394 21.8533 29.1861 21.32C29.5328 20.8 29.8594 20.2733 30.1661 19.74C30.4728 19.2067 30.7328 18.72 30.9461 18.28L32.2861 15.42C31.8061 15.7267 31.3061 16.06 30.7861 16.42C30.2661 16.78 29.7528 17.1667 29.2461 17.58C28.8061 17.9533 28.3594 18.36 27.9061 18.8C27.4394 19.2533 27.0128 19.7133 26.6261 20.18C26.2394 20.66 25.9328 21.1267 25.7061 21.58C25.4661 22.0333 25.3461 22.4467 25.3461 22.82C25.3461 23.18 25.4461 23.46 25.6461 23.66C25.8328 23.86 26.0594 23.96 26.3261 23.96ZM40.9544 15.08C40.421 15.08 40.1544 14.7333 40.1544 14.04C40.1544 13.8 40.1944 13.5333 40.2744 13.24C40.301 13.1467 40.361 12.9933 40.4544 12.78C40.5477 12.5667 40.6544 12.3333 40.7744 12.08C40.8944 11.8133 41.0077 11.5667 41.1144 11.34C41.221 11.1 41.2944 10.9133 41.3344 10.78C41.0544 11.2067 40.741 11.6333 40.3944 12.06C40.061 12.4733 39.701 12.82 39.3144 13.1C38.9277 13.38 38.5144 13.52 38.0744 13.52C37.661 13.5067 37.3677 13.3933 37.1944 13.18C37.021 12.9667 36.9344 12.7067 36.9344 12.4C36.9344 12.04 37.0144 11.6467 37.1744 11.22C37.3344 10.7933 37.5144 10.4133 37.7144 10.08C38.061 9.53333 38.481 9 38.9744 8.48C39.4677 7.96 39.9944 7.53333 40.5544 7.2C41.1144 6.85333 41.6477 6.68 42.1544 6.68C42.421 6.68 42.681 6.72667 42.9344 6.82C43.1877 6.9 43.441 7.04 43.6944 7.24C43.8944 7.4 43.9944 7.57333 43.9944 7.76C43.9944 7.94667 43.9144 8.04 43.7544 8.04C43.6344 8.04 43.5477 7.96 43.4944 7.8C43.321 7.34667 43.041 7.12 42.6544 7.12C42.3077 7.12 41.921 7.27333 41.4944 7.58C41.0677 7.88667 40.6477 8.25333 40.2344 8.68C39.7677 9.14667 39.3544 9.66 38.9944 10.22C38.6344 10.78 38.361 11.2867 38.1744 11.74C38.001 12.1533 37.9144 12.46 37.9144 12.66C37.9144 12.9133 38.0144 13.04 38.2144 13.04C38.441 13.04 38.7744 12.8667 39.2144 12.52C39.5077 12.2933 39.8277 12 40.1744 11.64C40.521 11.2667 40.8477 10.9 41.1544 10.54C41.461 10.18 41.701 9.9 41.8744 9.7C42.021 9.47333 42.141 9.29333 42.2344 9.16C42.2877 9.08 42.3744 9.02 42.4944 8.98C42.6144 8.94 42.741 8.92 42.8744 8.92C43.0344 8.92 43.1677 8.95333 43.2744 9.02C43.381 9.07333 43.4077 9.16 43.3544 9.28C43.301 9.4 43.181 9.63333 42.9944 9.98C42.821 10.3133 42.621 10.6933 42.3944 11.12C42.181 11.5467 41.9744 11.9533 41.7744 12.34C41.5877 12.7267 41.4477 13.0267 41.3544 13.24C41.1677 13.6533 41.0744 13.96 41.0744 14.16C41.0744 14.3333 41.141 14.42 41.2744 14.42C41.3677 14.42 41.5077 14.3667 41.6944 14.26C41.9877 14.1133 42.281 13.9067 42.5744 13.64C42.8677 13.36 43.1477 13.0667 43.4144 12.76C43.561 12.6133 43.6944 12.4733 43.8144 12.34C43.9344 12.2067 44.0477 12.0667 44.1544 11.92C44.1944 11.88 44.2277 11.86 44.2544 11.86C44.3344 11.86 44.3744 11.92 44.3744 12.04C44.3744 12.1067 44.3477 12.1667 44.2944 12.22C44.1477 12.4067 44.001 12.5867 43.8544 12.76C43.7077 12.9333 43.5544 13.1067 43.3944 13.28C43.2477 13.4533 43.0944 13.6267 42.9344 13.8C42.7877 13.96 42.6344 14.1133 42.4744 14.26C42.181 14.54 41.901 14.7467 41.6344 14.88C41.381 15.0133 41.1544 15.08 40.9544 15.08ZM48.0223 15.02C47.7957 15.02 47.6357 14.9333 47.5423 14.76C47.449 14.5867 47.4023 14.38 47.4023 14.14C47.4023 13.7133 47.5157 13.2267 47.7423 12.68C47.9823 12.1333 48.2557 11.5733 48.5623 11C48.869 10.4267 49.1357 9.88667 49.3623 9.38C49.6023 8.86 49.7223 8.42 49.7223 8.06C49.7223 7.88667 49.689 7.74667 49.6223 7.64C49.569 7.53333 49.4823 7.48 49.3623 7.48C49.2023 7.48 49.009 7.56667 48.7823 7.74C48.529 7.91333 48.2423 8.2 47.9223 8.6L47.1823 9.52C46.7957 10 46.4023 10.5133 46.0023 11.06C45.6157 11.5933 45.2623 12.0933 44.9423 12.56C44.6357 13.0267 44.409 13.4 44.2623 13.68C44.1423 13.8933 44.0023 14 43.8423 14C43.749 14 43.6623 13.9533 43.5823 13.86C43.5023 13.7667 43.4623 13.6467 43.4623 13.5C43.4623 13.4067 43.4823 13.3 43.5223 13.18C43.989 12.2867 44.429 11.3333 44.8423 10.32C45.269 9.30667 45.689 8.38667 46.1023 7.56C46.2223 7.33333 46.4223 7.14 46.7023 6.98C46.9823 6.80667 47.229 6.72 47.4423 6.72C47.6423 6.72 47.7423 6.79333 47.7423 6.94C47.7423 7.02 47.6823 7.17333 47.5623 7.4C47.4157 7.62667 47.2357 7.92 47.0223 8.28C46.809 8.64 46.589 9.02 46.3623 9.42C46.1357 9.82 45.9223 10.2 45.7223 10.56C45.5357 10.92 45.3957 11.2133 45.3023 11.44C45.449 11.24 45.649 10.94 45.9023 10.54C46.169 10.14 46.529 9.67333 46.9823 9.14L47.6223 8.38C48.049 7.87333 48.4423 7.52667 48.8023 7.34C49.1623 7.15333 49.4957 7.06 49.8023 7.06C50.0423 7.06 50.249 7.12 50.4223 7.24C50.5957 7.36 50.6823 7.56667 50.6823 7.86C50.6823 8.20667 50.609 8.55333 50.4623 8.9C50.3157 9.23333 50.1957 9.5 50.1023 9.7C50.009 9.91333 49.8757 10.2067 49.7023 10.58C49.529 10.9533 49.3557 11.3533 49.1823 11.78C49.009 12.2067 48.8623 12.6067 48.7423 12.98C48.6223 13.3533 48.5623 13.64 48.5623 13.84C48.5623 14.0133 48.6157 14.1 48.7223 14.1C48.8557 14.1 49.029 14.0333 49.2423 13.9C49.469 13.7533 49.689 13.5933 49.9023 13.42C50.129 13.2467 50.3023 13.1067 50.4223 13C50.8623 12.6 51.309 12.1333 51.7623 11.6C51.829 11.52 51.8823 11.48 51.9223 11.48C51.9623 11.48 51.9823 11.52 51.9823 11.6C51.9823 11.64 51.9623 11.6933 51.9223 11.76C51.8957 11.8267 51.8623 11.9 51.8223 11.98C51.7423 12.1133 51.6157 12.2933 51.4423 12.52C51.269 12.7333 51.089 12.94 50.9023 13.14C50.6223 13.4467 50.309 13.74 49.9623 14.02C49.629 14.3 49.2557 14.5533 48.8423 14.78C48.7357 14.8333 48.6357 14.88 48.5423 14.92C48.4623 14.9467 48.3957 14.9667 48.3423 14.98C48.289 14.9933 48.2357 15 48.1823 15C48.129 15.0133 48.0757 15.02 48.0223 15.02ZM51.4256 18.52C51.1723 18.52 50.9523 18.4133 50.7656 18.2C50.579 17.9867 50.4856 17.6533 50.4856 17.2C50.4856 16.9467 50.5123 16.6867 50.5656 16.42C50.5923 16.2867 50.6456 16.0267 50.7256 15.64C50.8056 15.2533 50.899 14.86 51.0056 14.46C51.1256 13.9667 51.2923 13.4067 51.5056 12.78C51.719 12.14 51.979 11.4667 52.2856 10.76C52.5123 10.2 52.7456 9.67333 52.9856 9.18C53.2256 8.68667 53.4656 8.20667 53.7056 7.74H50.9456C50.799 7.74 50.7256 7.70667 50.7256 7.64C50.7256 7.49333 50.8723 7.42 51.1656 7.42H53.8856C54.219 6.82 54.5656 6.25333 54.9256 5.72C55.2856 5.18667 55.6856 4.68667 56.1256 4.22C56.3523 3.95333 56.559 3.76667 56.7456 3.66C56.9456 3.55333 57.1456 3.48 57.3456 3.44C57.559 3.38667 57.7923 3.33333 58.0456 3.28C57.4323 4.02667 56.8923 4.73333 56.4256 5.4C55.9723 6.05333 55.5456 6.72667 55.1456 7.42H58.1056C58.2656 7.42 58.3456 7.46 58.3456 7.54C58.3456 7.58 58.3056 7.62667 58.2256 7.68C58.159 7.72 58.0523 7.74 57.9056 7.74H54.9656C54.6456 8.3 54.339 8.89333 54.0456 9.52C53.7523 10.1333 53.439 10.8067 53.1056 11.54C52.8256 12.1533 52.5723 12.8133 52.3456 13.52C52.1323 14.2133 51.959 14.8533 51.8256 15.44C51.6923 16.0267 51.6256 16.4467 51.6256 16.7C51.6256 17.3133 51.7923 17.62 52.1256 17.62C52.2856 17.62 52.4856 17.54 52.7256 17.38C53.2456 17.06 53.7123 16.7267 54.1256 16.38C54.539 16.0467 54.9323 15.6933 55.3056 15.32C55.5056 15.1333 55.739 14.8933 56.0056 14.6C56.2856 14.3067 56.5656 14.0067 56.8456 13.7C57.1256 13.3933 57.3723 13.12 57.5856 12.88L57.9256 12.5C57.9656 12.46 57.999 12.44 58.0256 12.44C58.1056 12.44 58.1456 12.4933 58.1456 12.6C58.1456 12.6667 58.119 12.7333 58.0656 12.8C57.999 12.9067 57.9256 13.0067 57.8456 13.1C57.7523 13.1933 57.6656 13.2933 57.5856 13.4C57.0123 14.1067 56.379 14.82 55.6856 15.54C54.9923 16.26 54.279 16.92 53.5456 17.52C53.239 17.76 52.919 17.9867 52.5856 18.2C52.2523 18.4133 51.8656 18.52 51.4256 18.52ZM66.1405 16.66C64.9538 16.66 64.0538 16.2867 63.4405 15.54C62.8405 14.8067 62.5405 13.86 62.5405 12.7C62.5405 12.42 62.5538 12.1467 62.5805 11.88C62.7271 10.5333 63.1338 9.25333 63.8005 8.04C64.4805 6.82667 65.3271 5.74 66.3405 4.78C65.8071 4.68667 65.2205 4.55333 64.5805 4.38C63.9538 4.20667 63.3538 3.98667 62.7805 3.72C62.2205 3.45333 61.7605 3.14667 61.4005 2.8C61.0405 2.44 60.8605 2.02667 60.8605 1.56C60.8605 1.29333 60.9538 1.08 61.1405 0.919999C61.3271 0.759999 61.5538 0.646666 61.8205 0.58C62.0871 0.499999 62.3538 0.459999 62.6205 0.459999C63.0605 0.459999 63.5738 0.533332 64.1605 0.68C64.7471 0.826666 65.3205 1.01333 65.8805 1.24C66.4538 1.45333 66.9205 1.68 67.2805 1.92C67.3338 1.96 67.3938 2.01333 67.4605 2.08C67.5271 2.13333 67.5605 2.2 67.5605 2.28C67.5605 2.33333 67.5338 2.37333 67.4805 2.4C67.4271 2.41333 67.3871 2.40667 67.3605 2.38C66.6671 2.02 65.8805 1.74 65.0005 1.54C64.1205 1.34 63.2871 1.24 62.5005 1.24C62.3138 1.24 62.1271 1.27333 61.9405 1.34C61.7538 1.39333 61.6605 1.51333 61.6605 1.7C61.6605 1.86 61.7138 2.02 61.8205 2.18C61.9405 2.32667 62.0538 2.45333 62.1605 2.56C62.7071 3.08 63.3938 3.5 64.2205 3.82C65.0471 4.12667 65.8605 4.34667 66.6605 4.48C67.6205 3.64 68.6471 2.97333 69.7405 2.48C70.5271 2.13333 71.3405 1.88 72.1805 1.72C73.0338 1.54667 73.9605 1.46 74.9605 1.46C75.2938 1.48667 75.6538 1.54667 76.0405 1.64C76.4405 1.72 76.7805 1.86667 77.0605 2.08C77.3405 2.28 77.4805 2.56667 77.4805 2.94C77.4805 3.28667 77.3538 3.58667 77.1005 3.84C76.8605 4.09333 76.5471 4.3 76.1605 4.46C75.7738 4.62 75.3671 4.74 74.9405 4.82C74.5405 4.91333 74.1071 4.98667 73.6405 5.04C73.1871 5.08 72.7471 5.11333 72.3205 5.14C71.8938 5.15333 71.5405 5.16 71.2605 5.16C70.7405 5.16 70.2205 5.15333 69.7005 5.14C69.1938 5.12667 68.6871 5.09333 68.1805 5.04C67.3005 5.81333 66.5271 6.7 65.8605 7.7C65.4605 8.34 65.1071 9.01333 64.8005 9.72C64.5071 10.4133 64.2938 11.14 64.1605 11.9C64.1071 12.14 64.0671 12.3867 64.0405 12.64C64.0271 12.88 64.0205 13.12 64.0205 13.36C64.0205 14.1733 64.2005 14.8467 64.5605 15.38C64.9205 15.9267 65.5138 16.2 66.3405 16.2C66.8205 16.2 67.3405 16.0933 67.9005 15.88C68.4471 15.68 68.9938 15.4 69.5405 15.04C70.1005 14.68 70.6338 14.2667 71.1405 13.8C71.6471 13.3333 72.0938 12.84 72.4805 12.32C72.8671 11.8 73.1738 11.2733 73.4005 10.74C73.6405 10.1933 73.7605 9.67333 73.7605 9.18C73.7605 8.88667 73.6871 8.68667 73.5405 8.58C73.3938 8.47333 73.1871 8.42 72.9205 8.42C72.5738 8.42 72.1938 8.52 71.7805 8.72C71.3671 8.93333 70.9471 9.21333 70.5205 9.56C70.0938 9.89333 69.6805 10.2733 69.2805 10.7C68.8671 11.1267 68.5071 11.56 68.2005 12C67.8805 12.4533 67.6271 12.8933 67.4405 13.32C67.2538 13.7333 67.1605 14.1 67.1605 14.42C67.1605 14.4867 67.1405 14.5667 67.1005 14.66C67.0738 14.7533 67.0205 14.8 66.9405 14.8C66.8605 14.8 66.8138 14.76 66.8005 14.68C66.7871 14.6 66.7805 14.54 66.7805 14.5C66.7805 14.1267 66.8538 13.7333 67.0005 13.32C67.1471 12.9067 67.2938 12.5333 67.4405 12.2C67.7071 11.7067 68.0271 11.2 68.4005 10.68C68.7871 10.16 69.2205 9.68 69.7005 9.24C70.1805 8.78667 70.6938 8.42667 71.2405 8.16C71.7871 7.88 72.3471 7.74 72.9205 7.74C73.4405 7.74 73.8471 7.84667 74.1405 8.06C74.4471 8.27333 74.6005 8.65333 74.6005 9.2C74.6005 10.2 74.3471 11.1533 73.8405 12.06C73.3338 12.9533 72.6805 13.74 71.8805 14.42C71.0671 15.1 70.1538 15.64 69.1405 16.04C68.1405 16.4533 67.1405 16.66 66.1405 16.66ZM69.3805 4.66C69.9805 4.66 70.6271 4.63333 71.3205 4.58C72.0138 4.52667 72.7005 4.44 73.3805 4.32C74.0738 4.2 74.7005 4.04667 75.2605 3.86C75.4071 3.82 75.5605 3.77333 75.7205 3.72C75.8805 3.66667 76.0271 3.6 76.1605 3.52C76.2805 3.46667 76.4271 3.38 76.6005 3.26C76.7871 3.12667 76.8805 2.98667 76.8805 2.84C76.8805 2.66667 76.7671 2.54667 76.5405 2.48C76.3271 2.4 76.0805 2.35333 75.8005 2.34C75.5205 2.32667 75.2938 2.32 75.1205 2.32C73.8938 2.32 72.7338 2.52667 71.6405 2.94C70.5471 3.35333 69.5405 3.92667 68.6205 4.66H69.3805ZM76.3627 15.08C75.9093 15.08 75.5293 14.8867 75.2227 14.5C74.9293 14.1133 74.7827 13.62 74.7827 13.02C74.7827 12.54 74.8627 12.0667 75.0227 11.6C75.1827 11.1467 75.396 10.7133 75.6627 10.3C75.9427 9.88667 76.256 9.5 76.6027 9.14C77.056 8.67333 77.5693 8.26667 78.1427 7.92C78.7293 7.57333 79.2627 7.4 79.7427 7.4C80.116 7.4 80.4027 7.49333 80.6027 7.68C80.816 7.85333 80.9227 8.06667 80.9227 8.32C80.9227 8.48 80.8693 8.65333 80.7627 8.84C81.1093 8.88 81.4493 8.9 81.7827 8.9C82.036 8.9 82.2893 8.88667 82.5427 8.86C82.796 8.83333 83.0493 8.79333 83.3027 8.74H83.3827C83.4893 8.74 83.5427 8.76667 83.5427 8.82C83.5427 8.87333 83.4827 8.92 83.3627 8.96C83.2293 9.01333 83.0093 9.06667 82.7027 9.12C82.396 9.17333 82.076 9.22 81.7427 9.26C81.4093 9.28667 81.1093 9.3 80.8427 9.3C80.7493 9.3 80.6693 9.3 80.6027 9.3C80.536 9.3 80.476 9.29333 80.4227 9.28L80.2227 9.38C80.3827 9.60667 80.4627 9.92 80.4627 10.32C80.4627 10.8533 80.3293 11.4 80.0627 11.96C79.8093 12.5067 79.4693 13.02 79.0427 13.5C78.6293 13.9667 78.1827 14.3467 77.7027 14.64C77.236 14.9333 76.7893 15.08 76.3627 15.08ZM76.5427 14.6C76.9027 14.6 77.256 14.4733 77.6027 14.22C77.9493 13.9533 78.2627 13.6133 78.5427 13.2C78.836 12.7733 79.076 12.32 79.2627 11.84C79.4627 11.3467 79.596 10.8733 79.6627 10.42C79.676 10.34 79.6827 10.2667 79.6827 10.2C79.6827 10.12 79.6827 10.0467 79.6827 9.98C79.6827 9.86 79.676 9.75333 79.6627 9.66C79.6493 9.55333 79.6227 9.47333 79.5827 9.42C79.556 9.42 79.536 9.41333 79.5227 9.4C79.3627 9.37333 79.2427 9.33333 79.1627 9.28C79.096 9.22667 79.016 9.16667 78.9227 9.1C78.8693 9.03333 78.8427 8.95333 78.8427 8.86C78.8427 8.76667 78.876 8.69333 78.9427 8.64C79.0227 8.58667 79.1093 8.57333 79.2027 8.6C79.536 8.66667 79.896 8.72667 80.2827 8.78C80.416 8.55333 80.4827 8.34667 80.4827 8.16C80.4827 7.84 80.2427 7.68 79.7627 7.68C79.4693 7.68 79.1627 7.79333 78.8427 8.02C78.536 8.23333 78.2293 8.52 77.9227 8.88C77.616 9.22667 77.3227 9.61333 77.0427 10.04C76.7627 10.4533 76.5227 10.86 76.3227 11.26C76.1893 11.5267 76.0693 11.8533 75.9627 12.24C75.8693 12.6267 75.8227 13 75.8227 13.36C75.8227 13.6933 75.876 13.9867 75.9827 14.24C76.1027 14.48 76.2893 14.6 76.5427 14.6ZM85.5028 15.02C85.2761 15.02 85.1161 14.9333 85.0228 14.76C84.9295 14.5867 84.8828 14.38 84.8828 14.14C84.8828 13.7133 84.9961 13.2267 85.2228 12.68C85.4628 12.1333 85.7361 11.5733 86.0428 11C86.3495 10.4267 86.6161 9.88667 86.8428 9.38C87.0828 8.86 87.2028 8.42 87.2028 8.06C87.2028 7.88667 87.1695 7.74667 87.1028 7.64C87.0495 7.53333 86.9628 7.48 86.8428 7.48C86.6828 7.48 86.4895 7.56667 86.2628 7.74C86.0095 7.91333 85.7228 8.2 85.4028 8.6L84.6628 9.52C84.2761 10 83.8828 10.5133 83.4828 11.06C83.0961 11.5933 82.7428 12.0933 82.4228 12.56C82.1161 13.0267 81.8895 13.4 81.7428 13.68C81.6228 13.8933 81.4828 14 81.3228 14C81.2295 14 81.1428 13.9533 81.0628 13.86C80.9828 13.7667 80.9428 13.6467 80.9428 13.5C80.9428 13.4067 80.9628 13.3 81.0028 13.18C81.4695 12.2867 81.9095 11.3333 82.3228 10.32C82.7495 9.30667 83.1695 8.38667 83.5828 7.56C83.7028 7.33333 83.9028 7.14 84.1828 6.98C84.4628 6.80667 84.7095 6.72 84.9228 6.72C85.1228 6.72 85.2228 6.79333 85.2228 6.94C85.2228 7.02 85.1628 7.17333 85.0428 7.4C84.8961 7.62667 84.7161 7.92 84.5028 8.28C84.2895 8.64 84.0695 9.02 83.8428 9.42C83.6161 9.82 83.4028 10.2 83.2028 10.56C83.0161 10.92 82.8761 11.2133 82.7828 11.44C82.9295 11.24 83.1295 10.94 83.3828 10.54C83.6495 10.14 84.0095 9.67333 84.4628 9.14L85.1028 8.38C85.5295 7.87333 85.9228 7.52667 86.2828 7.34C86.6428 7.15333 86.9761 7.06 87.2828 7.06C87.5228 7.06 87.7295 7.12 87.9028 7.24C88.0761 7.36 88.1628 7.56667 88.1628 7.86C88.1628 8.20667 88.0895 8.55333 87.9428 8.9C87.7961 9.23333 87.6761 9.5 87.5828 9.7C87.4895 9.91333 87.3561 10.2067 87.1828 10.58C87.0095 10.9533 86.8361 11.3533 86.6628 11.78C86.4895 12.2067 86.3428 12.6067 86.2228 12.98C86.1028 13.3533 86.0428 13.64 86.0428 13.84C86.0428 14.0133 86.0961 14.1 86.2028 14.1C86.3361 14.1 86.5095 14.0333 86.7228 13.9C86.9495 13.7533 87.1695 13.5933 87.3828 13.42C87.6095 13.2467 87.7828 13.1067 87.9028 13C88.3428 12.6 88.7895 12.1333 89.2428 11.6C89.3095 11.52 89.3628 11.48 89.4028 11.48C89.4428 11.48 89.4628 11.52 89.4628 11.6C89.4628 11.64 89.4428 11.6933 89.4028 11.76C89.3761 11.8267 89.3428 11.9 89.3028 11.98C89.2228 12.1133 89.0961 12.2933 88.9228 12.52C88.7495 12.7333 88.5695 12.94 88.3828 13.14C88.1028 13.4467 87.7895 13.74 87.4428 14.02C87.1095 14.3 86.7361 14.5533 86.3228 14.78C86.2161 14.8333 86.1161 14.88 86.0228 14.92C85.9428 14.9467 85.8761 14.9667 85.8228 14.98C85.7695 14.9933 85.7161 15 85.6628 15C85.6095 15.0133 85.5561 15.02 85.5028 15.02ZM92.8661 15.02C92.6394 15.02 92.4794 14.9333 92.3861 14.76C92.2928 14.5867 92.2461 14.38 92.2461 14.14C92.2461 13.7133 92.3594 13.2267 92.5861 12.68C92.8261 12.1333 93.0994 11.5733 93.4061 11C93.7128 10.4267 93.9794 9.88667 94.2061 9.38C94.4461 8.86 94.5661 8.42 94.5661 8.06C94.5661 7.88667 94.5328 7.74667 94.4661 7.64C94.4128 7.53333 94.3261 7.48 94.2061 7.48C94.0461 7.48 93.8528 7.56667 93.6261 7.74C93.3728 7.91333 93.0861 8.2 92.7661 8.6L92.0261 9.52C91.6394 10 91.2461 10.5133 90.8461 11.06C90.4594 11.5933 90.1061 12.0933 89.7861 12.56C89.4794 13.0267 89.2528 13.4 89.1061 13.68C88.9861 13.8933 88.8461 14 88.6861 14C88.5928 14 88.5061 13.9533 88.4261 13.86C88.3461 13.7667 88.3061 13.6467 88.3061 13.5C88.3061 13.4067 88.3261 13.3 88.3661 13.18C88.8328 12.2867 89.2728 11.3333 89.6861 10.32C90.1128 9.30667 90.5328 8.38667 90.9461 7.56C91.0661 7.33333 91.2661 7.14 91.5461 6.98C91.8261 6.80667 92.0728 6.72 92.2861 6.72C92.4861 6.72 92.5861 6.79333 92.5861 6.94C92.5861 7.02 92.5261 7.17333 92.4061 7.4C92.2594 7.62667 92.0794 7.92 91.8661 8.28C91.6528 8.64 91.4328 9.02 91.2061 9.42C90.9794 9.82 90.7661 10.2 90.5661 10.56C90.3794 10.92 90.2394 11.2133 90.1461 11.44C90.2928 11.24 90.4928 10.94 90.7461 10.54C91.0128 10.14 91.3728 9.67333 91.8261 9.14L92.4661 8.38C92.8928 7.87333 93.2861 7.52667 93.6461 7.34C94.0061 7.15333 94.3394 7.06 94.6461 7.06C94.8861 7.06 95.0928 7.12 95.2661 7.24C95.4394 7.36 95.5261 7.56667 95.5261 7.86C95.5261 8.20667 95.4528 8.55333 95.3061 8.9C95.1594 9.23333 95.0394 9.5 94.9461 9.7C94.8528 9.91333 94.7194 10.2067 94.5461 10.58C94.3728 10.9533 94.1994 11.3533 94.0261 11.78C93.8528 12.2067 93.7061 12.6067 93.5861 12.98C93.4661 13.3533 93.4061 13.64 93.4061 13.84C93.4061 14.0133 93.4594 14.1 93.5661 14.1C93.6994 14.1 93.8728 14.0333 94.0861 13.9C94.3128 13.7533 94.5328 13.5933 94.7461 13.42C94.9728 13.2467 95.1461 13.1067 95.2661 13C95.7061 12.6 96.1528 12.1333 96.6061 11.6C96.6728 11.52 96.7261 11.48 96.7661 11.48C96.8061 11.48 96.8261 11.52 96.8261 11.6C96.8261 11.64 96.8061 11.6933 96.7661 11.76C96.7394 11.8267 96.7061 11.9 96.6661 11.98C96.5861 12.1133 96.4594 12.2933 96.2861 12.52C96.1128 12.7333 95.9328 12.94 95.7461 13.14C95.4661 13.4467 95.1528 13.74 94.8061 14.02C94.4728 14.3 94.0994 14.5533 93.6861 14.78C93.5794 14.8333 93.4794 14.88 93.3861 14.92C93.3061 14.9467 93.2394 14.9667 93.1861 14.98C93.1328 14.9933 93.0794 15 93.0261 15C92.9728 15.0133 92.9194 15.02 92.8661 15.02ZM97.0294 17.88C96.5094 17.88 96.1094 17.6667 95.8294 17.24C95.5494 16.8267 95.4094 16.2333 95.4094 15.46C95.4094 15.3267 95.416 15.1933 95.4294 15.06C95.4294 14.9267 95.436 14.7867 95.4494 14.64C95.5294 13.9867 95.7294 13.2733 96.0494 12.5C96.3827 11.7267 96.8894 10.9 97.5694 10.02C98.0227 9.43333 98.516 8.99333 99.0494 8.7C99.5827 8.40667 100.096 8.26 100.589 8.26C100.936 8.26 101.243 8.32667 101.509 8.46C101.829 8.63333 101.989 8.94667 101.989 9.4C101.989 9.73333 101.869 10.1067 101.629 10.52C101.389 10.92 100.983 11.3067 100.409 11.68C99.6494 12.16 99.016 12.48 98.5094 12.64C98.0027 12.8 97.596 12.8867 97.2894 12.9C97.1827 13.0467 97.076 13.28 96.9694 13.6C96.8627 13.9067 96.7694 14.2333 96.6894 14.58C96.6227 14.9133 96.576 15.2133 96.5494 15.48C96.5494 15.5333 96.5427 15.5867 96.5294 15.64C96.5294 15.7067 96.5294 15.7733 96.5294 15.84C96.5294 16.24 96.596 16.58 96.7294 16.86C96.876 17.1533 97.1294 17.3 97.4894 17.3C97.8094 17.3 98.1694 17.18 98.5694 16.94C98.9694 16.7133 99.3627 16.4333 99.7494 16.1C100.149 15.78 100.496 15.4667 100.789 15.16C101.096 14.8667 101.309 14.6467 101.429 14.5L102.909 12.78L103.709 11.86C103.749 11.82 103.783 11.8 103.809 11.8C103.889 11.8 103.929 11.8533 103.929 11.96C103.929 12 103.896 12.0667 103.829 12.16C103.696 12.3467 103.543 12.54 103.369 12.74C103.209 12.94 103.056 13.1267 102.909 13.3C102.723 13.5133 102.489 13.7867 102.209 14.12C101.943 14.4533 101.656 14.8 101.349 15.16C101.056 15.52 100.769 15.8333 100.489 16.1C99.9827 16.5933 99.436 17.0133 98.8494 17.36C98.276 17.7067 97.6694 17.88 97.0294 17.88ZM97.4694 12.58C97.656 12.5667 97.8894 12.4933 98.1694 12.36C98.4494 12.2267 98.7427 12.0667 99.0494 11.88C99.356 11.6933 99.636 11.5067 99.8894 11.32C100.156 11.12 100.369 10.9533 100.529 10.82C100.836 10.58 101.063 10.3133 101.209 10.02C101.356 9.72667 101.429 9.47333 101.429 9.26C101.429 9.11333 101.389 8.98667 101.309 8.88C101.243 8.77333 101.136 8.72 100.989 8.72C100.709 8.72 100.403 8.86 100.069 9.14C99.7494 9.40667 99.4227 9.75333 99.0894 10.18C98.7694 10.5933 98.4627 11.02 98.1694 11.46C97.8894 11.8867 97.656 12.26 97.4694 12.58ZM104.914 15.6C104.341 15.6 103.934 15.4267 103.694 15.08C103.454 14.7333 103.334 14.2933 103.334 13.76C103.334 13.3733 103.381 12.9533 103.474 12.5C103.581 12.0333 103.707 11.5867 103.854 11.16C104.014 10.7333 104.167 10.3733 104.314 10.08C104.581 9.53333 104.901 8.98 105.274 8.42C105.647 7.84667 106.047 7.32667 106.474 6.86C106.901 6.39333 107.341 6.02 107.794 5.74C108.261 5.44667 108.714 5.3 109.154 5.3C109.541 5.3 109.827 5.44 110.014 5.72C110.214 5.98667 110.314 6.3 110.314 6.66C110.314 7.04667 110.207 7.39333 109.994 7.7C109.554 8.34 109.234 8.66 109.034 8.66C108.967 8.66 108.934 8.61333 108.934 8.52C108.934 8.42667 108.987 8.24 109.094 7.96C109.147 7.84 109.214 7.66667 109.294 7.44C109.374 7.2 109.441 6.96 109.494 6.72C109.561 6.46667 109.587 6.24667 109.574 6.06C109.534 6.04667 109.474 6.04 109.394 6.04C109.114 6.04 108.807 6.15333 108.474 6.38C108.154 6.60667 107.827 6.9 107.494 7.26C107.161 7.62 106.854 8 106.574 8.4C106.294 8.78667 106.061 9.14667 105.874 9.48C105.727 9.74667 105.567 10.0733 105.394 10.46C105.221 10.8333 105.054 11.2333 104.894 11.66C104.747 12.0733 104.634 12.4533 104.554 12.8C104.501 12.9867 104.461 13.1733 104.434 13.36C104.407 13.5467 104.394 13.7267 104.394 13.9C104.394 14.1933 104.447 14.44 104.554 14.64C104.674 14.84 104.874 14.94 105.154 14.94C105.621 14.94 106.074 14.8333 106.514 14.62C106.967 14.4067 107.394 14.1333 107.794 13.8C108.194 13.4667 108.561 13.1267 108.894 12.78C109.174 12.5 109.421 12.2133 109.634 11.92C109.674 11.88 109.707 11.86 109.734 11.86C109.814 11.86 109.854 11.92 109.854 12.04C109.854 12.1067 109.827 12.1667 109.774 12.22L108.894 13.26C108.614 13.5933 108.254 13.9467 107.814 14.32C107.374 14.68 106.901 14.98 106.394 15.22C105.887 15.4733 105.394 15.6 104.914 15.6ZM109.551 18.52C109.297 18.52 109.077 18.4133 108.891 18.2C108.704 17.9867 108.611 17.6533 108.611 17.2C108.611 16.9467 108.637 16.6867 108.691 16.42C108.717 16.2867 108.771 16.0267 108.851 15.64C108.931 15.2533 109.024 14.86 109.131 14.46C109.251 13.9667 109.417 13.4067 109.631 12.78C109.844 12.14 110.104 11.4667 110.411 10.76C110.637 10.2 110.871 9.67333 111.111 9.18C111.351 8.68667 111.591 8.20667 111.831 7.74H109.071C108.924 7.74 108.851 7.70667 108.851 7.64C108.851 7.49333 108.997 7.42 109.291 7.42H112.011C112.344 6.82 112.691 6.25333 113.051 5.72C113.411 5.18667 113.811 4.68667 114.251 4.22C114.477 3.95333 114.684 3.76667 114.871 3.66C115.071 3.55333 115.271 3.48 115.471 3.44C115.684 3.38667 115.917 3.33333 116.171 3.28C115.557 4.02667 115.017 4.73333 114.551 5.4C114.097 6.05333 113.671 6.72667 113.271 7.42H116.231C116.391 7.42 116.471 7.46 116.471 7.54C116.471 7.58 116.431 7.62667 116.351 7.68C116.284 7.72 116.177 7.74 116.031 7.74H113.091C112.771 8.3 112.464 8.89333 112.171 9.52C111.877 10.1333 111.564 10.8067 111.231 11.54C110.951 12.1533 110.697 12.8133 110.471 13.52C110.257 14.2133 110.084 14.8533 109.951 15.44C109.817 16.0267 109.751 16.4467 109.751 16.7C109.751 17.3133 109.917 17.62 110.251 17.62C110.411 17.62 110.611 17.54 110.851 17.38C111.371 17.06 111.837 16.7267 112.251 16.38C112.664 16.0467 113.057 15.6933 113.431 15.32C113.631 15.1333 113.864 14.8933 114.131 14.6C114.411 14.3067 114.691 14.0067 114.971 13.7C115.251 13.3933 115.497 13.12 115.711 12.88L116.051 12.5C116.091 12.46 116.124 12.44 116.151 12.44C116.231 12.44 116.271 12.4933 116.271 12.6C116.271 12.6667 116.244 12.7333 116.191 12.8C116.124 12.9067 116.051 13.0067 115.971 13.1C115.877 13.1933 115.791 13.2933 115.711 13.4C115.137 14.1067 114.504 14.82 113.811 15.54C113.117 16.26 112.404 16.92 111.671 17.52C111.364 17.76 111.044 17.9867 110.711 18.2C110.377 18.4133 109.991 18.52 109.551 18.52ZM120.387 6.26C120.04 6.26 119.867 6.09333 119.867 5.76C119.867 5.56 119.94 5.39333 120.087 5.26C120.234 5.11333 120.394 5.04 120.567 5.04C120.74 5.04 120.874 5.1 120.967 5.22C121.074 5.34 121.114 5.48667 121.087 5.66C121.047 5.83333 120.96 5.98 120.827 6.1C120.707 6.20667 120.56 6.26 120.387 6.26ZM117.147 15C116.454 15 116.107 14.5667 116.107 13.7C116.107 13.5133 116.127 13.3 116.167 13.06C116.22 12.78 116.32 12.4467 116.467 12.06C116.627 11.66 116.8 11.2667 116.987 10.88C117.187 10.48 117.367 10.14 117.527 9.86C117.66 9.64667 117.814 9.39333 117.987 9.1C118.16 8.80667 118.327 8.53333 118.487 8.28C118.647 8.02667 118.747 7.86 118.787 7.78C118.867 7.60667 119.027 7.47333 119.267 7.38C119.507 7.27333 119.72 7.22 119.907 7.22C120.12 7.22 120.227 7.28 120.227 7.4C120.227 7.48 120.2 7.55333 120.147 7.62C119.894 8.03333 119.594 8.51333 119.247 9.06C118.914 9.60667 118.587 10.1667 118.267 10.74C117.947 11.3133 117.68 11.86 117.467 12.38C117.254 12.9 117.147 13.3467 117.147 13.72C117.147 13.92 117.18 14.08 117.247 14.2C117.327 14.32 117.467 14.38 117.667 14.38C117.88 14.38 118.12 14.28 118.387 14.08C118.667 13.8667 118.934 13.6333 119.187 13.38C119.454 13.1133 119.654 12.9067 119.787 12.76L120.187 12.34C120.254 12.2733 120.314 12.2067 120.367 12.14C120.42 12.06 120.474 11.9867 120.527 11.92C120.567 11.88 120.6 11.86 120.627 11.86C120.707 11.86 120.747 11.92 120.747 12.04C120.747 12.1067 120.72 12.1667 120.667 12.22C120.52 12.4067 120.374 12.5867 120.227 12.76C120.08 12.9333 119.927 13.1067 119.767 13.28C119.434 13.68 119.047 14.0667 118.607 14.44C118.167 14.8133 117.68 15 117.147 15ZM121.91 15.08C121.456 15.08 121.076 14.8867 120.77 14.5C120.476 14.1133 120.33 13.62 120.33 13.02C120.33 12.54 120.41 12.0667 120.57 11.6C120.73 11.1467 120.943 10.7133 121.21 10.3C121.49 9.88667 121.803 9.5 122.15 9.14C122.603 8.67333 123.116 8.26667 123.69 7.92C124.276 7.57333 124.81 7.4 125.29 7.4C125.663 7.4 125.95 7.49333 126.15 7.68C126.363 7.85333 126.47 8.06667 126.47 8.32C126.47 8.48 126.416 8.65333 126.31 8.84C126.656 8.88 126.996 8.9 127.33 8.9C127.583 8.9 127.836 8.88667 128.09 8.86C128.343 8.83333 128.596 8.79333 128.85 8.74H128.93C129.036 8.74 129.09 8.76667 129.09 8.82C129.09 8.87333 129.03 8.92 128.91 8.96C128.776 9.01333 128.556 9.06667 128.25 9.12C127.943 9.17333 127.623 9.22 127.29 9.26C126.956 9.28667 126.656 9.3 126.39 9.3C126.296 9.3 126.216 9.3 126.15 9.3C126.083 9.3 126.023 9.29333 125.97 9.28L125.77 9.38C125.93 9.60667 126.01 9.92 126.01 10.32C126.01 10.8533 125.876 11.4 125.61 11.96C125.356 12.5067 125.016 13.02 124.59 13.5C124.176 13.9667 123.73 14.3467 123.25 14.64C122.783 14.9333 122.336 15.08 121.91 15.08ZM122.09 14.6C122.45 14.6 122.803 14.4733 123.15 14.22C123.496 13.9533 123.81 13.6133 124.09 13.2C124.383 12.7733 124.623 12.32 124.81 11.84C125.01 11.3467 125.143 10.8733 125.21 10.42C125.223 10.34 125.23 10.2667 125.23 10.2C125.23 10.12 125.23 10.0467 125.23 9.98C125.23 9.86 125.223 9.75333 125.21 9.66C125.196 9.55333 125.17 9.47333 125.13 9.42C125.103 9.42 125.083 9.41333 125.07 9.4C124.91 9.37333 124.79 9.33333 124.71 9.28C124.643 9.22667 124.563 9.16667 124.47 9.1C124.416 9.03333 124.39 8.95333 124.39 8.86C124.39 8.76667 124.423 8.69333 124.49 8.64C124.57 8.58667 124.656 8.57333 124.75 8.6C125.083 8.66667 125.443 8.72667 125.83 8.78C125.963 8.55333 126.03 8.34667 126.03 8.16C126.03 7.84 125.79 7.68 125.31 7.68C125.016 7.68 124.71 7.79333 124.39 8.02C124.083 8.23333 123.776 8.52 123.47 8.88C123.163 9.22667 122.87 9.61333 122.59 10.04C122.31 10.4533 122.07 10.86 121.87 11.26C121.736 11.5267 121.616 11.8533 121.51 12.24C121.416 12.6267 121.37 13 121.37 13.36C121.37 13.6933 121.423 13.9867 121.53 14.24C121.65 14.48 121.836 14.6 122.09 14.6ZM131.05 15.02C130.823 15.02 130.663 14.9333 130.57 14.76C130.476 14.5867 130.43 14.38 130.43 14.14C130.43 13.7133 130.543 13.2267 130.77 12.68C131.01 12.1333 131.283 11.5733 131.59 11C131.896 10.4267 132.163 9.88667 132.39 9.38C132.63 8.86 132.75 8.42 132.75 8.06C132.75 7.88667 132.716 7.74667 132.65 7.64C132.596 7.53333 132.51 7.48 132.39 7.48C132.23 7.48 132.036 7.56667 131.81 7.74C131.556 7.91333 131.27 8.2 130.95 8.6L130.21 9.52C129.823 10 129.43 10.5133 129.03 11.06C128.643 11.5933 128.29 12.0933 127.97 12.56C127.663 13.0267 127.436 13.4 127.29 13.68C127.17 13.8933 127.03 14 126.87 14C126.776 14 126.69 13.9533 126.61 13.86C126.53 13.7667 126.49 13.6467 126.49 13.5C126.49 13.4067 126.51 13.3 126.55 13.18C127.016 12.2867 127.456 11.3333 127.87 10.32C128.296 9.30667 128.716 8.38667 129.13 7.56C129.25 7.33333 129.45 7.14 129.73 6.98C130.01 6.80667 130.256 6.72 130.47 6.72C130.67 6.72 130.77 6.79333 130.77 6.94C130.77 7.02 130.71 7.17333 130.59 7.4C130.443 7.62667 130.263 7.92 130.05 8.28C129.836 8.64 129.616 9.02 129.39 9.42C129.163 9.82 128.95 10.2 128.75 10.56C128.563 10.92 128.423 11.2133 128.33 11.44C128.476 11.24 128.676 10.94 128.93 10.54C129.196 10.14 129.556 9.67333 130.01 9.14L130.65 8.38C131.076 7.87333 131.47 7.52667 131.83 7.34C132.19 7.15333 132.523 7.06 132.83 7.06C133.07 7.06 133.276 7.12 133.45 7.24C133.623 7.36 133.71 7.56667 133.71 7.86C133.71 8.20667 133.636 8.55333 133.49 8.9C133.343 9.23333 133.223 9.5 133.13 9.7C133.036 9.91333 132.903 10.2067 132.73 10.58C132.556 10.9533 132.383 11.3533 132.21 11.78C132.036 12.2067 131.89 12.6067 131.77 12.98C131.65 13.3533 131.59 13.64 131.59 13.84C131.59 14.0133 131.643 14.1 131.75 14.1C131.883 14.1 132.056 14.0333 132.27 13.9C132.496 13.7533 132.716 13.5933 132.93 13.42C133.156 13.2467 133.33 13.1067 133.45 13C133.89 12.6 134.336 12.1333 134.79 11.6C134.856 11.52 134.91 11.48 134.95 11.48C134.99 11.48 135.01 11.52 135.01 11.6C135.01 11.64 134.99 11.6933 134.95 11.76C134.923 11.8267 134.89 11.9 134.85 11.98C134.77 12.1133 134.643 12.2933 134.47 12.52C134.296 12.7333 134.116 12.94 133.93 13.14C133.65 13.4467 133.336 13.74 132.99 14.02C132.656 14.3 132.283 14.5533 131.87 14.78C131.763 14.8333 131.663 14.88 131.57 14.92C131.49 14.9467 131.423 14.9667 131.37 14.98C131.316 14.9933 131.263 15 131.21 15C131.156 15.0133 131.103 15.02 131.05 15.02Z" fill="white"/>
</svg>
